<svg width="130" height="29" viewBox="0 0 130 29" fill="none" xmlns="http://www.w3.org/2000/svg">
<path d="M7.336 5.724L9.184 5.528V3.4H0.868V5.556L2.716 5.752V20.648L0.868 20.872V23H9.184V20.872L7.336 20.648V14.292H14.168V20.648L12.348 20.872V23H20.636V20.872L18.788 20.648V5.724L20.636 5.528V3.4H12.348V5.556L14.168 5.752V11.856H7.336V5.724ZM23.4382 4.688C23.4382 5.836 23.9982 7.124 26.0422 7.124C27.8902 7.124 28.6742 6.088 28.6742 4.66C28.6742 3.008 27.6942 2.224 26.0982 2.224C24.1662 2.224 23.4382 3.372 23.4382 4.688ZM22.2342 9.14V11.016L24.2782 11.212V20.872L22.1782 21.068V23H30.7462V21.068L28.6182 20.872V8.916L22.2342 9.14ZM33.9491 27.648C36.6651 25.576 37.7851 23.84 37.7851 21.684C37.7851 19.948 36.8331 18.464 34.9011 18.464C33.5851 18.464 32.3531 19.248 32.3531 20.816C32.3531 21.964 33.2211 22.72 33.9491 22.972L35.0411 21.88C35.4051 21.992 35.6571 22.3 35.6571 22.944C35.6571 23.756 35.2651 24.68 33.0251 26.584L33.9491 27.648ZM53.5148 25.716H51.9468C50.5748 25.716 50.3508 25.66 50.3508 24.232V4.072C50.3508 2.756 50.6308 2.616 51.9748 2.616H53.5148V0.992H46.5708V27.34H53.5148V25.716ZM55.1432 3.4V5.528L56.8512 5.724V20.676L55.1432 20.872V23H63.2072V20.872L61.4712 20.676V14.32L62.5352 14.04L66.8472 20.704L65.0832 20.9V23H73.5952V20.9L72.1112 20.704L65.9232 11.38L71.0472 5.724L72.5872 5.528V3.4H66.7072V5.528L68.3872 5.724L62.5912 12.108L61.4712 12.388V5.724L63.2072 5.528V3.4H55.1432ZM72.5561 10.904L73.8161 11.016L77.9601 22.524H79.7241L78.9401 24.764C78.2961 26.612 77.8761 27.368 76.8961 27.368C76.2521 27.368 75.9161 27.032 75.9721 26.528L77.2321 25.94C77.2601 24.344 76.4481 23.616 75.2161 23.616C73.7321 23.616 72.8921 24.68 72.8921 25.968C72.8921 28.068 74.7121 28.908 76.5041 28.908C79.1921 28.908 80.1161 27.452 81.0681 24.792L86.0801 11.016L87.4801 10.904V8.972H82.1041V10.904L83.8121 11.016L81.1521 18.772H81.0401L78.5481 11.016L80.2841 10.904V8.972H72.5561V10.904ZM87.8423 2.224V4.1L89.7183 4.296V20.872L87.8423 21.068V23H95.9903V21.068L94.0583 20.872V2L87.8423 2.224ZM97.3199 16.224C97.3199 20.452 99.7559 23.308 104.292 23.308C107.288 23.308 109.36 21.796 110.2 19.164L108.212 18.464C107.54 19.976 106.728 20.984 104.992 20.984C102.472 20.984 101.884 18.968 101.856 16.364H110.256C110.284 15.972 110.312 15.216 110.312 14.852C110.312 10.596 107.848 8.664 104.264 8.664C100.288 8.664 97.3199 11.408 97.3199 16.224ZM101.884 14.516C101.94 12.192 102.444 10.344 104.096 10.344C105.552 10.344 105.916 11.464 105.916 14.012V14.516H101.884ZM111.932 27.34H118.876V0.992H111.932V2.616H113.472C114.816 2.616 115.096 2.756 115.096 4.072V24.232C115.096 25.66 114.872 25.716 113.5 25.716H111.932V27.34ZM125.657 17.82H127.421V16.224C127.421 10.316 129.017 7.992 129.017 5.556C129.017 4.352 128.345 3.204 126.777 3.204C125.153 3.204 124.369 4.324 124.369 5.64C124.369 7.768 125.657 10.26 125.657 16.196V17.82ZM124.453 21.236C124.453 22.272 124.985 23.308 126.525 23.308C127.897 23.308 128.597 22.468 128.597 21.208C128.597 19.808 127.701 19.192 126.497 19.192C125.153 19.192 124.453 20.116 124.453 21.236Z" fill="#1B1B1B"/>
</svg>
